<?xml version="1.0" encoding="UTF-8" standalone="no"?>
<!DOCTYPE svg PUBLIC "-//W3C//DTD SVG 1.1//EN" "http://www.w3.org/Graphics/SVG/1.1/DTD/svg11.dtd">
<svg width="100%" height="100%" viewBox="0 0 597 713" version="1.1" xmlns="http://www.w3.org/2000/svg" xmlns:xlink="http://www.w3.org/1999/xlink" xml:space="preserve" xmlns:serif="http://www.serif.com/" style="fill-rule:evenodd;clip-rule:evenodd;stroke-linejoin:round;stroke-miterlimit:2;">
    <g transform="matrix(1,0,0,1,-201.86,-1375.18)">
        <g transform="matrix(0.75523,0,0,1.44832,-70.7501,-500.103)">
            <g id="LOGO" transform="matrix(1.97862,0,0,1.97862,-739.571,-1480.44)">
                <g id="UPPER" transform="matrix(1,0,0,1,159.838,4.54747e-13)">
                    <g transform="matrix(6.22962,0,0,3.24846,-590.497,-3797.98)">
                        <g transform="matrix(50,0,0,50,155.766,1636.19)">
                            <path d="M0.248,-0.705L0.248,-0.296C0.248,-0.258 0.257,-0.229 0.275,-0.208C0.292,-0.187 0.319,-0.177 0.355,-0.177C0.391,-0.177 0.418,-0.188 0.437,-0.209C0.455,-0.23 0.464,-0.259 0.464,-0.296L0.464,-0.705L0.66,-0.705L0.66,-0.296C0.66,-0.231 0.646,-0.176 0.619,-0.131C0.592,-0.085 0.555,-0.05 0.508,-0.028C0.46,-0.005 0.408,0.007 0.351,0.007C0.294,0.007 0.243,-0.005 0.198,-0.028C0.153,-0.05 0.117,-0.085 0.092,-0.13C0.066,-0.175 0.053,-0.231 0.053,-0.296L0.053,-0.705L0.248,-0.705Z" style="fill-rule:nonzero;"/>
                        </g>
                    </g>
                    <g transform="matrix(1.3241,0,0,0.690456,78.5814,384.753)">
                        <path d="M411.403,1641.68L411.403,1574.19L479.77,1574.19C492.992,1574.19 504.231,1576.52 513.486,1581.19C522.742,1585.86 529.703,1592.31 534.37,1600.56C539.036,1608.8 541.37,1618.29 541.37,1629.02C541.37,1633.42 540.923,1637.64 540.029,1641.68L490.516,1641.68C493.307,1638.74 494.703,1634.52 494.703,1629.02C494.703,1617.05 488.247,1611.06 475.336,1611.06L457.136,1611.06L457.136,1641.68L411.403,1641.68Z"/>
                    </g>
                    <g transform="matrix(1.3241,0,0,0.690456,-23.5156,274.287)">
                        <path d="M612.67,1634.18C612.327,1634.86 611.967,1635.53 611.593,1636.2C607.004,1644.36 600.082,1650.9 590.826,1655.8C581.571,1660.7 570.254,1663.15 556.876,1663.15L534.243,1663.15L534.243,1718.68L488.51,1718.68L488.51,1634.18L612.67,1634.18Z"/>
                    </g>
                </g>
                <g id="LOWER" transform="matrix(1,0,0,1,155.087,-139.645)">
                    <g transform="matrix(6.22962,0,0,3.24846,-579.104,-3583.94)">
                        <path d="M188.766,1619.6L188.766,1621.39C188.766,1624.63 188.083,1627.39 186.716,1629.67C185.35,1631.95 183.491,1633.67 181.141,1634.82C178.791,1635.97 176.183,1636.55 173.316,1636.55C170.45,1636.55 167.891,1635.97 165.641,1634.82C163.391,1633.67 161.625,1631.96 160.341,1629.69C159.058,1627.43 158.416,1624.66 158.416,1621.39L158.416,1619.6L168.166,1619.6L168.166,1621.39C168.166,1623.3 168.608,1624.76 169.491,1625.8C170.375,1626.83 171.716,1627.35 173.516,1627.35C175.316,1627.35 176.675,1626.82 177.591,1625.77C178.508,1624.72 178.966,1623.26 178.966,1621.39L178.966,1619.6L188.766,1619.6Z"/>
                    </g>
                    <g transform="matrix(6.22962,0,0,3.24846,-579.104,-3459.66)">
                        <path d="M158.416,1616.3L158.416,1600.94L168.166,1600.94L168.166,1616.3L158.416,1616.3ZM178.966,1616.3L178.966,1600.94L188.766,1600.94L188.766,1616.3L178.966,1616.3Z"/>
                    </g>
                    <g transform="matrix(1.3241,0,0,0.690456,30.9811,479.304)">
                        <g transform="matrix(233.333,0,0,233.333,434.286,1899.5)">
                            <path d="M0.613,-0.47C0.613,-0.427 0.603,-0.389 0.584,-0.354C0.564,-0.319 0.534,-0.291 0.495,-0.27C0.455,-0.249 0.406,-0.238 0.349,-0.238L0.252,-0.238L0.252,-0L0.056,-0L0.056,-0.705L0.349,-0.705C0.406,-0.705 0.454,-0.695 0.494,-0.675C0.533,-0.655 0.563,-0.627 0.583,-0.592C0.603,-0.557 0.613,-0.516 0.613,-0.47ZM0.33,-0.394C0.385,-0.394 0.413,-0.419 0.413,-0.47C0.413,-0.521 0.385,-0.547 0.33,-0.547L0.252,-0.547L0.252,-0.394L0.33,-0.394Z" style="fill-rule:nonzero;"/>
                        </g>
                    </g>
                </g>
            </g>
        </g>
    </g>
</svg>
